<svg xmlns="http://www.w3.org/2000/svg" viewBox="0 0 48 48" width="48" height="48">
  <rect width="48" height="48" rx="12" fill="#00BFFF"/>
  <path d="M15 10.5a2.5 2.5 0 0 1 2.5-2.5h9.379a2.5 2.5 0 0 1 1.767.732l4.622 4.622a2.5 2.5 0 0 1 .732 1.767V37.5a2.5 2.5 0 0 1-2.5 2.5h-16a2.5 2.5 0 0 1-2.5-2.5z" fill="#fff"/>
  <path d="M27 8.3V15a2 2 0 0 0 2 2h6.7" fill="#bdeeff"/>
  <rect x="18.5" y="22" width="11" height="2.4" rx="1.2" fill="#00BFFF"/>
  <rect x="18.5" y="27" width="11" height="2.4" rx="1.2" fill="#00BFFF"/>
  <rect x="18.5" y="32" width="7" height="2.4" rx="1.2" fill="#00BFFF"/>
</svg>
